<svg width="101" height="34" xmlns="http://www.w3.org/2000/svg">
  <g fill="#FFF" fill-rule="nonzero">
    <path d="M4.592 0c.508.002 1.01.107 1.476.31.436.179.825.462 1.134.826l.06.07-.749.77-.067-.081c-.45-.542-1.062-.81-1.858-.81a2.56 2.56 0 00-1.852.765c-.518.512-.777 1.175-.777 1.993 0 .82.26 1.488.777 2a2.586 2.586 0 001.856.764 2.542 2.542 0 001.893-.77c.304-.311.487-.737.549-1.283H4.495v-1.06h3.573l.017.077c.038.185.057.375.054.564 0 1.019-.3 1.844-.895 2.46-.681.725-1.567 1.09-2.65 1.09a3.607 3.607 0 01-2.65-1.1A3.755 3.755 0 01.85 3.844 3.733 3.733 0 011.942 1.11 3.59 3.59 0 014.592.001zm31.53.004a3.487 3.487 0 012.636 1.12 3.786 3.786 0 011.068 2.725 3.803 3.803 0 01-1.06 2.722 3.507 3.507 0 01-2.642 1.114c-1.054 0-1.936-.372-2.64-1.114a3.8 3.8 0 01-1.064-2.724 3.802 3.802 0 011.063-2.729c.71-.743 1.592-1.115 2.64-1.114zm-22.588.16v1.077H10.34v2.072h2.879v1.06h-2.88v2.071h3.194v1.077H9.245V.164h4.29zm5.767 0v1.077H17.34v6.28h-1.095v-6.28h-1.96V.164H19.3zm4.65 0v7.357H22.6V.164h1.35zm5.707 0v1.077h-1.963v6.28h-1.088v-6.28h-1.966V.164h5.017zm12.492 0l3.295 5.378-.031-1.087V.165h1.094V7.52h-1.091L41.96 1.87l.031 1.092v4.559h-1.087V.164h1.245zm-7.866 1.689c-.501.518-.754 1.182-.754 1.99 0 .807.252 1.468.755 1.988a2.567 2.567 0 003.677 0c.502-.518.755-1.182.755-1.989 0-.807-.253-1.47-.754-1.988a2.567 2.567 0 00-3.679-.001zM32.558 18.62c-2.75 0-4.995 2.133-4.995 5.08 0 2.92 2.245 5.078 4.995 5.078s5-2.157 5-5.079c.004-2.946-2.242-5.08-5-5.08zm0 8.157c-1.509 0-2.806-1.271-2.806-3.079 0-1.832 1.297-3.08 2.806-3.08 1.509 0 2.811 1.248 2.811 3.08.005 1.809-1.3 3.08-2.811 3.08v-.001zm-10.895-8.158c-2.755 0-4.995 2.134-4.995 5.08 0 2.922 2.24 5.079 4.995 5.079s4.997-2.157 4.997-5.079c0-2.946-2.243-5.08-4.997-5.08zm0 8.158c-1.51 0-2.812-1.271-2.812-3.079 0-1.832 1.302-3.08 2.812-3.08 1.51 0 2.806 1.248 2.806 3.08 0 1.809-1.297 3.08-2.806 3.08v-.001zm-12.967-6.6v2.158h5.051c-.148 1.207-.542 2.094-1.148 2.711-.738.746-1.886 1.576-3.903 1.576-3.067 0-5.553-2.567-5.553-5.732 0-3.166 2.486-5.732 5.553-5.732a5.3 5.3 0 013.806 1.538l1.49-1.52C12.732 13.945 11.05 13 8.697 13 4.432 13 .849 16.542.849 20.89c0 4.347 3.583 7.89 7.847 7.89 2.304 0 4.035-.776 5.395-2.215 1.394-1.422 1.829-3.423 1.829-5.038a7.364 7.364 0 00-.114-1.348h-7.11v-.002zm53.029 1.672c-.411-1.135-1.68-3.23-4.264-3.23-2.56 0-4.691 2.06-4.691 5.08 0 2.845 2.11 5.079 4.932 5.079 1.662.016 3.22-.83 4.15-2.252l-1.698-1.153c-.566.845-1.337 1.405-2.453 1.405-1.115 0-1.902-.518-2.41-1.539l6.658-2.81-.224-.58zm-6.79 1.692c-.056-1.958 1.491-2.961 2.6-2.961.869 0 1.609.442 1.852 1.078l-4.451 1.883zm-5.411 4.925h2.189V13.54h-2.19v14.925zm-3.585-8.718h-.073c-.49-.594-1.43-1.131-2.617-1.131-2.493 0-4.773 2.233-4.773 5.092 0 2.86 2.28 5.062 4.773 5.062 1.188 0 2.125-.54 2.617-1.153h.073v.737c0 1.942-1.016 2.99-2.657 2.99-1.337 0-2.167-.986-2.51-1.814l-1.903.81c.748 1.828 2.49 3.01 4.412 2.996 2.566 0 4.731-1.541 4.731-5.29v-9.119h-2.073v.822-.002zm-2.503 7.026c-1.508 0-2.77-1.288-2.77-3.062 0-1.773 1.262-3.1 2.77-3.1 1.487 0 2.659 1.307 2.659 3.1 0 1.794-1.172 3.066-2.659 3.066v-.004zm28.535-13.236h-5.235v14.928h2.183v-5.654h3.052c2.424 0 4.802-1.79 4.802-4.636s-2.384-4.635-4.802-4.635v-.003zm.057 7.195h-3.11v-5.116h3.11a2.464 2.464 0 012.208 1.257c.46.804.46 1.801 0 2.604a2.464 2.464 0 01-2.208 1.258v-.003zm13.492-2.145c-1.577 0-3.216.71-3.891 2.286l1.937.828c.417-.828 1.18-1.097 1.994-1.097 1.133 0 2.281.694 2.298 1.92v.157a4.72 4.72 0 00-2.28-.578c-2.087 0-4.213 1.172-4.213 3.359 0 2 1.71 3.288 3.63 3.288 1.47 0 2.28-.676 2.788-1.463h.075v1.154h2.108v-5.724c.001-2.646-1.936-4.127-4.446-4.127v-.003zm-.263 8.18c-.714 0-1.71-.36-1.71-1.263 0-1.156 1.241-1.599 2.314-1.599.966 0 1.413.222 1.996.502-.174 1.346-1.283 2.355-2.6 2.363v-.002zm12.39-7.85l-2.509 6.472h-.075l-2.594-6.472H90.11l3.898 9.043-2.224 5.032h2.28l6.006-14.075h-2.423zm-19.676 9.548h2.189V13.54h-2.189v14.925z"/>
  </g>
</svg>
