<svg width="101" height="34" xmlns="http://www.w3.org/2000/svg">
  <g fill="#FFF" fill-rule="nonzero">
    <path d="M22.608 17.388c3.074 0 5.1 2.452 5.1 6.24 0 3.798-2.014 6.238-5.054 6.238a4.099 4.099 0 01-3.811-2.139h-.058v6.054H16.3V17.515h2.407v2.033h.045a4.288 4.288 0 013.857-2.16zm13.332 0c3.074 0 5.101 2.452 5.101 6.24 0 3.798-2.015 6.238-5.055 6.238a4.099 4.099 0 01-3.812-2.139h-.057v6.054h-2.486V17.515h2.406v2.033h.046a4.288 4.288 0 013.857-2.16zm17.847-4.694c3.512 0 5.919 1.987 6 4.88h-2.51c-.15-1.674-1.52-2.684-3.524-2.684-2.003 0-3.373 1.022-3.373 2.51 0 1.185.875 1.882 3.017 2.416l1.83.453c3.409.814 4.824 2.195 4.824 4.648 0 3.136-2.475 5.1-6.413 5.1-3.684 0-6.172-1.918-6.332-4.95h2.545c.184 1.662 1.784 2.754 3.972 2.754 2.095 0 3.603-1.092 3.603-2.59 0-1.302-.91-2.081-3.063-2.615l-2.153-.523c-3.05-.744-4.467-2.184-4.467-4.52 0-2.892 2.498-4.879 6.044-4.879zM74.8 17.365c3.512 0 5.746 2.417 5.746 6.262 0 3.857-2.223 6.263-5.746 6.263-3.523 0-5.745-2.406-5.745-6.263 0-3.845 2.245-6.262 5.745-6.262zm20.133 0c3.351 0 5.458 2.323 5.458 6.029v.86h-8.555v.151a3.2 3.2 0 00.855 2.473 3.14 3.14 0 002.404.99 2.738 2.738 0 002.797-1.72h2.36c-.334 2.219-2.475 3.742-5.215 3.742-3.523 0-5.71-2.383-5.71-6.205 0-3.833 2.198-6.32 5.606-6.32zm-29.514-2.742v2.892h2.303v1.987H65.42v6.738c0 1.047.461 1.535 1.474 1.535a7.7 7.7 0 00.818-.058v1.975a6.768 6.768 0 01-1.381.116c-2.453 0-3.409-.93-3.409-3.3v-7.006H61.16v-1.987h1.76v-2.892h2.499zm-56.662-1.65l5.998 16.765h-2.728l-1.52-4.531H4.176l-1.52 4.53H-.029L5.97 12.975h2.787zm79.18 4.414c.287 0 .573.03.853.094v2.347a3.446 3.446 0 00-1.117-.152 2.494 2.494 0 00-1.937.805 2.543 2.543 0 00-.654 2.007v7.25h-2.486V17.515h2.37v2.08h.058a2.893 2.893 0 012.914-2.208zM74.8 19.432c-2.015 0-3.213 1.57-3.213 4.195 0 2.649 1.198 4.194 3.213 4.194 2.014 0 3.212-1.545 3.212-4.194 0-2.638-1.198-4.195-3.212-4.195zm-52.848.094c-1.9 0-3.177 1.661-3.177 4.101 0 2.463 1.278 4.112 3.177 4.112 1.934 0 3.201-1.615 3.201-4.112 0-2.474-1.267-4.101-3.2-4.101zm13.332 0c-1.9 0-3.177 1.661-3.177 4.101 0 2.463 1.277 4.112 3.177 4.112 1.934 0 3.2-1.615 3.2-4.112 0-2.474-1.266-4.101-3.2-4.101zM7.376 15.762h-.07l-2.475 7.354h5.02l-2.475-7.354zm87.557 3.636a3.052 3.052 0 00-2.183.903 3.109 3.109 0 00-.902 2.2h6.056a2.955 2.955 0 00-.814-2.207 2.9 2.9 0 00-2.157-.896zM91.576 2.58c1.677 0 2.69 1.222 2.69 3.242v.443h-4.258v.071c-.038.478.115.95.42 1.3.306.352.737.549 1.186.543.582.075 1.148-.233 1.434-.78h1.146c-.334 1.214-1.435 1.998-2.613 1.862a2.662 2.662 0 01-2.113-.973 3.054 3.054 0 01-.672-2.348 3.102 3.102 0 01.67-2.357 2.707 2.707 0 012.11-1.004zm-77.5.458c.922.61 1.44 1.726 1.337 2.88.105 1.153-.412 2.272-1.336 2.884a2.706 2.706 0 01-3.015 0c-.924-.612-1.441-1.73-1.336-2.885-.103-1.153.415-2.269 1.337-2.88.923-.61 2.09-.61 3.013 0zm26.161 0c.923.61 1.441 1.726 1.338 2.88.105 1.154-.413 2.272-1.336 2.884a2.706 2.706 0 01-3.016 0c-.923-.612-1.441-1.73-1.336-2.885-.103-1.153.415-2.269 1.338-2.88.922-.61 2.09-.61 3.012 0zm24.119 0c.922.61 1.44 1.726 1.337 2.88.106 1.153-.412 2.272-1.336 2.884a2.706 2.706 0 01-3.015 0c-.923-.612-1.441-1.73-1.336-2.885-.103-1.153.415-2.269 1.338-2.88.922-.61 2.09-.61 3.012 0zm-18.832-.459c1.512 0 2.364.803 2.364 2.162v4.395h-1.145v-.904h-.095c-.389.66-1.08 1.046-1.81 1.01a1.75 1.75 0 01-1.406-.486 2.003 2.003 0 01-.605-1.439c0-1.158.809-1.825 2.243-1.92l1.633-.1V4.74c0-.68-.42-1.063-1.234-1.063-.664 0-1.125.26-1.257.715H43.06c.122-1.105 1.096-1.814 2.464-1.814zM55.083.192v8.944h-1.14V8.12h-.095c-.386.72-1.115 1.153-1.893 1.122-1.534 0-2.503-1.287-2.503-3.325 0-2.032.98-3.32 2.503-3.32.77-.038 1.49.402 1.849 1.128h.089V.192h1.19zm24.052.91v1.63h1.306v1.07h-1.306V7.11c0 .674.26.969.852.969.152 0 .303-.01.454-.03v1.058c-.214.04-.43.063-.647.065-1.324 0-1.85-.497-1.85-1.737V3.802h-.958v-1.07h.957v-1.63h1.192zm-71.75.679a3.933 3.933 0 01.94 3.067c0 2.723-1.38 4.289-3.76 4.289H1.679V.612h2.886c1.056-.08 2.09.348 2.82 1.169zm21.675.798a1.898 1.898 0 011.582.661c.406.466.592 1.103.505 1.732v4.164h-1.19V5.291c0-1.034-.421-1.548-1.301-1.548a1.34 1.34 0 00-1.071.462c-.277.313-.412.74-.369 1.168v3.763h-1.19V2.704h1.146v1.022h.088c.31-.753 1.032-1.213 1.8-1.147zm-11.58.125l1.08 4.908h.088l1.24-4.908h1.141l1.24 4.908h.094l1.075-4.908h1.19l-1.655 6.432h-1.235L20.492 4.4h-.094l-1.241 4.737h-1.223l-1.662-6.432h1.207zM34.232.192v8.944h-1.19V.192h1.19zm36.09 2.387a1.898 1.898 0 011.583.661c.406.466.592 1.103.505 1.732v4.164h-1.19V5.291c0-1.034-.421-1.548-1.301-1.548a1.34 1.34 0 00-1.072.462c-.276.313-.41.74-.368 1.168v3.763h-1.19V2.704h1.145v1.022h.09c.308-.753 1.031-1.213 1.799-1.147zM83.247.192v3.545h.094c.324-.759 1.06-1.22 1.839-1.152a1.925 1.925 0 011.566.678c.402.464.589 1.094.51 1.72v4.153h-1.191v-3.84c0-1.027-.449-1.547-1.29-1.547a1.36 1.36 0 00-1.114.438c-.293.315-.44.751-.404 1.192v3.757h-1.19V.192h1.18zM46.703 6.23l-1.472.1c-.83.06-1.207.36-1.207.928 0 .579.47.916 1.118.916.383.041.766-.085 1.06-.35.294-.265.475-.646.501-1.056V6.23zM12.572 3.707c-1.035 0-1.617.816-1.617 2.21 0 1.406.582 2.215 1.617 2.215 1.03 0 1.617-.815 1.617-2.215 0-1.394-.587-2.21-1.617-2.21zm26.16 0c-1.034 0-1.616.816-1.616 2.21 0 1.406.582 2.215 1.617 2.215 1.03 0 1.617-.815 1.617-2.215 0-1.394-.587-2.21-1.617-2.21zm24.12 0c-1.035 0-1.617.816-1.617 2.21 0 1.406.582 2.215 1.617 2.215 1.03 0 1.617-.815 1.617-2.215 0-1.394-.587-2.21-1.617-2.21zm-10.56.03c-1.001 0-1.61.827-1.61 2.18 0 1.365.602 2.186 1.61 2.186 1.003 0 1.623-.833 1.623-2.18 0-1.34-.626-2.186-1.623-2.186zM4.426 1.817H2.92v6.114h1.506c.755.048 1.49-.27 2.001-.864a2.8 2.8 0 00.634-2.202 2.806 2.806 0 00-.644-2.187 2.441 2.441 0 00-1.99-.86zM91.57 3.66a1.494 1.494 0 00-1.11.482c-.294.314-.457.74-.451 1.184h3.045a1.615 1.615 0 00-.396-1.183 1.411 1.411 0 00-1.088-.483z"/>
  </g>
</svg>
