<svg viewBox="0 0 26 61" id="icon_mainpage_laurel-right" xmlns="http://www.w3.org/2000/svg"><path fill="#fff" d="M25.385 31.763a.176.176 0 0 0-.164-.032c-.062.02-.12.037-.175.053-.16.047-.278.08-.393.127-1.823.723-3.258 1.96-4.387 3.784-.28.45-.495.92-.667 1.386.282-1.57.347-2.183.397-3.94.003-.075.003-.15.003-.224 0-.204 0-.396.044-.57.054-.21.16-.416.265-.617.03-.057.058-.114.083-.164a2.937 2.937 0 0 0 1.455-.703c.43-.38.785-.843 1.053-1.38.962-1.925 1.443-4.052 1.43-6.32 0-.22-.026-.434-.054-.665-.013-.104-.026-.21-.037-.32a.179.179 0 0 0-.27-.132c-.032.02-.06.037-.085.05-.05.03-.087.053-.122.078a9.47 9.47 0 0 0-3.872 6.878c-.015-.193-.03-.387-.047-.58-.065-.828-.128-1.613-.18-2.384-.012-.195-.05-.385-.086-.57-.07-.352-.136-.686-.03-1.035.024-.08.044-.16.065-.238.05-.197.29-.5.663-.83.15-.13.856-.773 1.255-2.045.406-1.292.375-2.643.353-3.63-.03-1.38-.176-2.402-.476-3.337a5.543 5.543 0 0 0-.133-.362l-.077-.2a.17.17 0 0 0-.135-.112c-.083-.003-.133.02-.166.062l-.29.353c-1.396 1.697-2.08 3.688-2.038 5.916.007.392.037.794.09 1.21a34.45 34.45 0 0 0-1.244-3.552 1.525 1.525 0 0 1-.02-.238c-.005-.226-.01-.46 0-.688a.34.34 0 0 1 .077-.174c.073-.096.154-.19.238-.288a3.96 3.96 0 0 0 .408-.534c.377-.63.554-1.373.557-2.34.005-1.14-.17-2.34-.555-3.774-.21-.783-.526-1.8-1.116-2.722-.04-.062-.086-.12-.133-.182L16.8 6.69c-.033-.045-.08-.07-.154-.07a.171.171 0 0 0-.142.09c-.74 1.33-1.108 2.755-1.126 4.35-.015 1.33.193 2.475.454 3.38a33.583 33.583 0 0 0-2.203-3.49c-.094-.413-.13-.7-.153-.95.096-.178.154-.266.215-.36.124-.186.25-.38.333-.597.247-.656.302-1.4.17-2.272-.293-1.93-1.147-3.67-2.61-5.318-.15-.17-.318-.32-.494-.477-.116-.106-.187-.17-.258-.237a.175.175 0 0 0-.174-.04.176.176 0 0 0-.12.13 8.34 8.34 0 0 0-.083.378c-.197 1.173-.182 2.43.044 3.84.224 1.4.673 2.608 1.36 3.657a27.878 27.878 0 0 0-3.083-3.132c.07-.733-.104-1.396-.544-2.057-.58-.868-1.382-1.53-2.39-1.966-.6-.26-1.225-.49-1.836-.717C3.714.72 3.42.613 3.12.497c-.303-.12-.433-.14-.503-.076-.09.085-.07.157-.03.287C2.97 1.99 3.46 2.973 4.1 3.75c1.173 1.43 2.546 2.157 4.194 2.222a.26.26 0 0 1 .122.033c.232.174.403.312.554.45.477.435.948.9 1.408 1.388-.684-.425-1.52-.616-2.463-.57-.515.027-1.027.103-1.522.176l-.456.065c-.317.043-.638.1-.92.148-.116.02-.39.083-.453.215.027.18.05.217.077.25.818 1.058 1.75 1.755 2.85 2.13 1.342.46 2.575.422 3.682-.12.17-.092.373-.14.607-.14.175 0 .307.028.35.038.066.01.155.048.173.07.69.905 1.343 1.87 1.953 2.883-.516-.5-1.188-.84-2.104-1.058-.803-.19-1.624-.232-2.418-.272l-.266-.014c-.25-.012-.497-.028-.754-.044l-.43-.027a.173.173 0 0 0-.14.072c-.007.213.025.295.04.323.838 1.397 1.82 2.363 3.006 2.954 1.158.577 2.204.73 3.26.478.122-.03.263-.045.41-.045.45 0 .762.137.827.263.58 1.195 1.1 2.437 1.546 3.704-.468-.645-1.124-1.17-1.954-1.56-.825-.39-1.684-.744-2.53-1.093-.362-.15-.726-.3-1.09-.453a.178.178 0 0 0-.247.161c0 .113 1.206 3.45 2.955 4.763.714.537 1.593 1.09 2.7 1.115.333.007.676.053.935.347.04.047.093.083.15.103.088.03.113.083.156.267.358 1.504.62 3.054.78 4.628a6.12 6.12 0 0 0-.17-.485c-.39-.99-1.05-1.857-2.073-2.728-.528-.45-1.08-.887-1.614-1.31a63.7 63.7 0 0 1-.754-.597c-.05-.04-.1-.08-.156-.13l-.15-.128a.18.18 0 0 0-.194-.023.171.171 0 0 0-.097.168c.008.106.014.207.02.304.014.244.025.43.046.616.188 1.804.726 3.31 1.642 4.604.568.8 1.382 1.778 2.65 2.24.31.113.534.285.774.592.226.288.27.55.263.882a36.233 36.233 0 0 1-.296 4.11 5.561 5.561 0 0 0-.26-1.163c-.275-.83-.703-1.637-1.31-2.467-.524-.72-1.07-1.44-1.595-2.14-.246-.322-.454-.6-.658-.87a.235.235 0 0 0-.125-.086.177.177 0 0 0-.146-.004.18.18 0 0 0-.098.108c-.39 2.25-.166 4.187.656 6.01.4.892.94 1.9 1.89 2.627.432.333.774.798.962 1.31.04.11.04.16.034.178a31.333 31.333 0 0 1-1.564 4.776c.164-.8.153-1.637-.035-2.507-.266-1.23-.724-2.425-1.132-3.448l-.122-.307c-.19-.48-.383-.962-.582-1.462a.18.18 0 0 0-.167-.11.171.171 0 0 0-.152.095l-.065.12c-.028.053-.054.102-.077.153-.82 1.847-1.098 3.742-.823 5.63.196 1.35.528 2.316 1.078 3.134.285.423.555.894.604 1.473.012.137.007.232-.055.34a26.801 26.801 0 0 1-2.32 3.414c.62-1.135.64-2.34.576-3.375a49.571 49.571 0 0 0-.253-2.625c-.045-.392-.085-.735-.12-1.078-.02-.195-.044-.39-.068-.586l-.03-.268a.177.177 0 0 0-.096-.136c-.098-.05-.254.028-.423.227-1.162 1.37-1.882 2.918-2.142 4.602-.27 1.745-.124 3.24.447 4.567.01.022.005.32-.016.894a.252.252 0 0 1-.057.14 20.575 20.575 0 0 1-3.808 2.89c.65-.586 1.115-1.35 1.417-2.316.334-1.07.506-2.187.673-3.268.073-.476.135-.855.198-1.243l.072-.438a.174.174 0 0 0-.065-.167.173.173 0 0 0-.177-.024c-.128.05-.186.075-.24.103-2.59 1.29-4.295 4.3-4.054 7.156.038.447-.003.867-.126 1.283-1.293.603-2.462.98-3.64 1.24a.174.174 0 0 0-.127.115.174.174 0 0 0 .032.17c.128.152.24.314.33.484.04.07.128.106.195.088.96-.218 1.893-.5 2.776-.84a.327.327 0 0 1 .177-.034c.197.026.405.066.635.123.048.01.087.033.088.03.504 1.003 1.37 1.64 2.647 1.95a6.4 6.4 0 0 0 .852.147c.3.032.637.048.997.048.5 0 .856-.03.86-.03 1.108-.125 2.054-.374 2.892-.762.344-.16.736-.373 1.037-.755a.174.174 0 0 0-.02-.24c-.852-.75-1.72-1.294-2.65-1.665-1.38-.547-2.64-.695-3.872-.46a6.262 6.262 0 0 0-.54.134 21.89 21.89 0 0 0 3.3-2.417.201.201 0 0 1 .08-.04c.17-.027.397-.062.63-.08.68.714 1.488 1.055 2.525 1.055.053 0 .106 0 .16-.003 1.127-.036 2.26-.345 3.368-.92.807-.418 1.647-.906 2.328-1.634a5.94 5.94 0 0 0 .405-.506c.064-.087.117-.16.172-.23.026-.185-.002-.228-.05-.26-.01-.005-.3-.16-.563-.26-1.763-.68-3.542-.75-5.24-.204a5.544 5.544 0 0 0-1.588.815 27.64 27.64 0 0 0 2.606-3.578c.107-.1.178-.143.25-.184.125-.073.257-.15.38-.24.104-.08.133-.08.238-.013.15.096.32.146.472.185.88.226 1.77.113 2.752-.347.898-.42 1.588-1.083 2.2-1.738.89-.954 1.473-1.815 1.832-2.71.075-.188.13-.382.185-.585.022-.085.046-.17.07-.254a.175.175 0 0 0-.11-.217l-.073-.004c-.363 0-3.603.053-5.498 1.887-.413.4-.783.824-1.12 1.288a34.555 34.555 0 0 0 1.898-4.985c.01-.03.184-.286.524-.766.063-.028.077-.027.093-.027l.106.007c.37.023.587.02.766-.01.706-.11 1.343-.464 1.947-1.083 1.414-1.446 2.387-3.25 2.975-5.516.063-.242.08-.487.1-.747.008-.118.017-.24.03-.365a.176.176 0 0 0-.063-.155z"></path></svg>