<svg viewBox="0 0 25 61" id="icon_mainpage_lauren-left" xmlns="http://www.w3.org/2000/svg">
<path
fill="#fff"
d="M24.85 58.102a20.62 20.62 0 0 1-3.576-1.155.184.184 0 0 1-.062-.085 3.431 3.431 0 0 1-.126-1.284c.24-2.856-1.464-5.866-4.054-7.156-.055-.028-.112-.052-.178-.08l-.062-.025a.178.178 0 0 0-.176.023.178.178 0 0 0-.066.167l.07.438c.064.388.125.767.184 1.147l.015.1c.166 1.078.337 2.193.672 3.265.302.967.77 1.73 1.417 2.314a20.465 20.465 0 0 1-3.807-2.887.251.251 0 0 1-.057-.136l-.03-.765a.362.362 0 0 1 .014-.135c.57-1.327.717-2.82.447-4.567-.26-1.684-.98-3.232-2.142-4.602-.136-.16-.256-.242-.356-.242a.146.146 0 0 0-.066.014.173.173 0 0 0-.096.137l-.03.267a44.4 44.4 0 0 0-.07.587c-.035.344-.074.686-.114 1.03l-.005.048c-.1.855-.2 1.74-.255 2.626-.062 1.033-.044 2.24.568 3.356l.01.017a26.456 26.456 0 0 1-2.32-3.414c-.062-.108-.067-.202-.056-.34.05-.58.32-1.05.604-1.472.55-.817.882-1.784 1.08-3.134.273-1.888-.004-3.782-.825-5.63-.022-.05-.05-.1-.077-.153l-.064-.12a.178.178 0 0 0-.166-.095.174.174 0 0 0-.154.11l-.584 1.464-.122.306c-.408 1.022-.866 2.216-1.132 3.448-.187.87-.2 1.708-.034 2.507a31.348 31.348 0 0 1-1.565-4.777c-.004-.018-.006-.066.034-.177.19-.514.53-.98.965-1.31.95-.727 1.487-1.736 1.89-2.627.82-1.824 1.043-3.76.68-5.922a.378.378 0 0 0-.02-.07l-.006-.018a.173.173 0 0 0-.1-.108.178.178 0 0 0-.14.002.235.235 0 0 0-.128.086l-.624.827-.035.045a156.39 156.39 0 0 0-1.595 2.138c-.607.83-1.035 1.638-1.31 2.468-.133.402-.22.788-.26 1.163a36.415 36.415 0 0 1-.296-4.11c-.005-.33.037-.593.264-.88.24-.308.464-.48.773-.593 1.268-.462 2.082-1.44 2.65-2.24.916-1.294 1.454-2.8 1.643-4.603.02-.186.032-.374.043-.572l.003-.045c.005-.097.01-.198.02-.304a.184.184 0 0 0-.098-.17.186.186 0 0 0-.194.024l-.15.13c-.057.047-.105.088-.156.128-.242.194-.484.386-.728.578l-.025.02c-.535.422-1.087.86-1.615 1.31-1.023.87-1.682 1.737-2.074 2.727-.064.164-.12.325-.17.485a35.7 35.7 0 0 1 .782-4.628c.044-.184.068-.238.158-.267a.35.35 0 0 0 .147-.1c.26-.297.603-.344.936-.35 1.108-.026 1.987-.578 2.7-1.114 1.75-1.315 2.955-4.65 2.955-4.764 0-.06-.03-.114-.08-.147a.18.18 0 0 0-.166-.016c-.364.155-.728.305-1.106.46-.83.344-1.69.7-2.513 1.087-.83.393-1.486.917-1.955 1.56a35.642 35.642 0 0 1 1.545-3.7c.067-.13.38-.266.83-.266.145 0 .287.016.41.045 1.054.252 2.1.1 3.26-.48 1.184-.59 2.167-1.556 3.004-2.953.016-.027.048-.11.064-.156a.17.17 0 0 0-.02-.165.184.184 0 0 0-.153-.072l-.42.027c-.256.016-.505.03-.754.044l-.266.014c-.793.04-1.614.08-2.417.27-.916.22-1.59.558-2.104 1.06a31.585 31.585 0 0 1 1.952-2.882.411.411 0 0 1 .18-.073c.037-.01.17-.036.345-.036.233 0 .437.047.61.142 1.1.536 2.336.575 3.678.116 1.1-.375 2.033-1.072 2.85-2.13a.803.803 0 0 0 .072-.11.148.148 0 0 0 .005-.14c-.063-.132-.337-.194-.452-.215-.283-.048-.603-.104-.92-.147l-.438-.063-.02-.003c-.494-.073-1.005-.15-1.52-.175-.943-.048-1.78.144-2.464.57.46-.49.93-.954 1.408-1.39a7.9 7.9 0 0 1 .556-.45.245.245 0 0 1 .12-.032c1.65-.064 3.022-.79 4.196-2.22.64-.78 1.13-1.76 1.5-3.002l.012-.043c.04-.13.06-.202-.03-.286-.07-.066-.193-.047-.513.08-.29.11-.582.22-.883.33-.603.224-1.227.454-1.83.715-1.006.436-1.81 1.098-2.388 1.966-.442.662-.616 1.325-.534 2.026 0 .008-.007.027-.008.03a28.035 28.035 0 0 0-3.087 3.136c.69-1.05 1.137-2.257 1.362-3.657.227-1.412.24-2.668.044-3.84-.012-.074-.03-.148-.05-.24l-.033-.14a.181.181 0 0 0-.12-.13.182.182 0 0 0-.173.04c-.072.068-.143.132-.21.194l-.05.043a6.04 6.04 0 0 0-.493.477c-1.464 1.647-2.317 3.387-2.61 5.32-.133.872-.078 1.615.17 2.27.08.218.21.412.336.605.058.087.116.176.17.266a.303.303 0 0 1 .04.08c-.023.26-.057.546-.104.892l-.03.042-.018.023a33.92 33.92 0 0 0-2.203 3.49c.26-.903.468-2.048.454-3.378-.018-1.597-.386-3.02-1.127-4.353a.184.184 0 0 0-.156-.09.177.177 0 0 0-.14.072c-.02.03-.044.06-.065.086-.048.062-.093.12-.133.183-.59.92-.905 1.937-1.115 2.72-.384 1.436-.56 2.635-.555 3.774.003.967.18 1.71.557 2.34.116.197.263.368.412.54.078.092.16.186.232.283a.351.351 0 0 1 .078.173c.01.23.004.463 0 .69l-.004.154a.249.249 0 0 1-.016.082 34.232 34.232 0 0 0-1.244 3.553c.052-.417.082-.82.09-1.212.042-2.23-.643-4.22-2.038-5.916l-.29-.353a.173.173 0 0 0-.137-.066l-.03.002a.176.176 0 0 0-.135.112l-.078.2a6.32 6.32 0 0 0-.134.363c-.3.937-.446 1.958-.475 3.313v.027c-.022.986-.053 2.336.353 3.63.4 1.27 1.104 1.914 1.24 2.03l.015.013c.372.33.614.634.665.83.02.08.04.16.064.238.106.35.04.684-.032 1.045-.035.18-.072.37-.085.562-.05.77-.114 1.555-.175 2.313L6 28.47l-.047.58a9.447 9.447 0 0 0-1.722-4.706 9.194 9.194 0 0 0-2.15-2.17 1.669 1.669 0 0 0-.123-.08l-.086-.05a.183.183 0 0 0-.17-.008.177.177 0 0 0-.096.14c-.01.11-.024.216-.038.326-.027.226-.053.44-.055.658-.01 2.27.47 4.397 1.433 6.32a4.507 4.507 0 0 0 1.052 1.382c.428.375.89.595 1.41.675.01.002.038.018.042.022l.086.168c.104.2.212.408.265.615.045.176.045.368.045.57 0 .076 0 .15.002.225.05 1.758.116 2.37.398 3.94a7.878 7.878 0 0 0-.667-1.385C4.446 33.87 3.01 32.63 1.19 31.91c-.117-.047-.233-.08-.368-.12l-.027-.008-.175-.052a.176.176 0 0 0-.228.187c.013.124.023.246.03.364.02.26.037.506.1.748.588 2.266 1.562 4.07 2.975 5.517.605.62 1.242.973 1.948 1.084.178.027.396.03.764.008l.105-.007h.043c.03 0 .032 0 .052.03l.494.675c.006.01.015.04.022.064l.007.023a34.495 34.495 0 0 0 1.898 4.986 9.742 9.742 0 0 0-1.118-1.29c-1.896-1.833-5.136-1.886-5.5-1.886H2.17l-.03.005a.173.173 0 0 0-.108.215c.025.085.05.17.076.27a5 5 0 0 0 .18.57c.36.895.942 1.756 1.832 2.71.613.655 1.303 1.318 2.2 1.738.983.46 1.87.573 2.753.347.15-.04.324-.09.472-.185.106-.068.135-.065.24.012.122.09.253.168.38.242.07.04.14.082.207.124.01.008.032.045.04.06a27.798 27.798 0 0 0 2.607 3.577 5.58 5.58 0 0 0-1.588-.814c-1.7-.546-3.48-.477-5.242.203-.263.1-.55.255-.57.266a.174.174 0 0 0-.042.253c.055.07.108.143.16.214l.013.015c.12.16.253.344.405.506.68.728 1.52 1.216 2.326 1.635 1.107.575 2.24.884 3.368.92.053.002.106.003.16.003 1.036 0 1.846-.34 2.47-1.038a.123.123 0 0 1 .05-.016c.238.016.464.05.633.08.028.004.06.02.082.038 1.042.92 2.146 1.73 3.3 2.416a6.649 6.649 0 0 0-.54-.132c-1.232-.237-2.49-.088-3.87.46-.933.37-1.8.914-2.65 1.663a.175.175 0 0 0-.022.24c.3.383.692.597 1.036.756.838.39 1.784.638 2.893.76a9.7 9.7 0 0 0 .858.032c.36 0 .696-.016.997-.047.287-.03.574-.08.852-.146 1.278-.312 2.144-.95 2.64-1.94.01-.01.047-.03.095-.043.23-.057.438-.097.636-.123a.346.346 0 0 1 .177.034c.883.34 1.816.622 2.774.84a.178.178 0 0 0 .195-.088c.09-.17.203-.333.33-.484a.175.175 0 0 0-.095-.284z">
</path>
</svg>