<?xml version="1.0" encoding="UTF-8"?>
<svg width="60px" height="34px" viewBox="0 0 60 34" version="1.1" xmlns="http://www.w3.org/2000/svg" xmlns:xlink="http://www.w3.org/1999/xlink">
    <!-- Generator: Sketch 53 (72520) - https://sketchapp.com -->
    <title>bank-transfer</title>
    <desc>Created with Sketch.</desc>
    <g id="Page-1" stroke="none" stroke-width="1" fill="none" fill-rule="evenodd">
        <g id="deposit-copy" transform="translate(-940.000000, -3941.000000)" fill="#5C6783" fill-rule="nonzero">
            <g id="bank-transfer" transform="translate(939.000000, 3941.000000)">
                <path d="M37.32588,14.3285714 L36.55068,7.08171429 L35.77548,14.3285714 L32.8491,14.3285714 L31.33746,0.728571429 L33.41112,0.728571429 L34.55454,11.4531429 L35.58168,0.728571429 L37.63596,0.728571429 L38.70186,11.5308571 L39.80652,0.728571429 L41.667,0.728571429 L40.15536,14.3285714 L37.32588,14.3285714 Z M42.7329,14.3285714 L42.7329,0.728571429 L44.8647,0.728571429 L44.8647,14.3285714 L42.7329,14.3285714 Z M53.04306,14.3285714 L50.8725,14.3285714 C50.7432994,13.9399981 50.6787,13.3830512 50.6787,12.6577143 L50.6787,10.5205714 C50.6787,9.89885403 50.5688811,9.45523942 50.34924,9.18971429 C50.1295989,8.92418915 49.7743024,8.79142857 49.28334,8.79142857 L48.5469,8.79142857 L48.5469,14.3285714 L46.4151,14.3285714 L46.4151,0.728571429 L49.63218,0.728571429 C50.7303855,0.728571429 51.5314174,0.984378394 52.0353,1.496 C52.5391825,2.00762161 52.79112,2.79447088 52.79112,3.85657143 L52.79112,4.92514286 C52.79112,6.32400699 52.3260047,7.24361685 51.39576,7.684 C52.3389247,8.08552582 52.8105,9.05046855 52.8105,10.5788571 L52.8105,12.6771429 C52.8105,13.4154323 52.8880193,13.9659029 53.04306,14.3285714 Z M49.57404,2.67142857 L48.5469,2.67142857 L48.5469,6.84857143 L49.38024,6.84857143 C49.8066021,6.84857143 50.1263689,6.73847729 50.33955,6.51828571 C50.5527311,6.29809414 50.65932,5.92895497 50.65932,5.41085714 L50.65932,4.07028571 C50.65932,3.13770962 50.2975636,2.67142857 49.57404,2.67142857 Z M56.33766,2.67142857 L56.33766,6.46 L59.26404,6.46 L59.26404,8.40285714 L56.33766,8.40285714 L56.33766,12.3857143 L60.01986,12.3857143 L60.01986,14.3285714 L54.20586,14.3285714 L54.20586,0.728571429 L60.01986,0.728571429 L60.01986,2.67142857 L56.33766,2.67142857 Z M1.02714,22.1 L1.02714,20.1571429 L7.61634,20.1571429 L7.61634,22.1 L5.38764,22.1 L5.38764,33.7571429 L3.25584,33.7571429 L3.25584,22.1 L1.02714,22.1 Z M15.17454,33.7571429 L13.00398,33.7571429 C12.8747794,33.3685695 12.81018,32.8116227 12.81018,32.0862857 L12.81018,29.9491429 C12.81018,29.3274255 12.7003611,28.8838109 12.48072,28.6182857 C12.2610789,28.3527605 11.9057824,28.22 11.41482,28.22 L10.67838,28.22 L10.67838,33.7571429 L8.54658,33.7571429 L8.54658,20.1571429 L11.76366,20.1571429 C12.8618655,20.1571429 13.6628974,20.4129499 14.16678,20.9245714 C14.6706625,21.436193 14.9226,22.2230423 14.9226,23.2851429 L14.9226,24.3537143 C14.9226,25.7525785 14.4574847,26.6721883 13.52724,27.1125714 C14.4704047,27.5140972 14.94198,28.4790399 14.94198,30.0074286 L14.94198,32.1057143 C14.94198,32.8440037 15.0194993,33.3944743 15.17454,33.7571429 Z M11.70552,22.1 L10.67838,22.1 L10.67838,26.2771429 L11.51172,26.2771429 C11.9380821,26.2771429 12.2578489,26.1670488 12.47103,25.9468571 C12.6842111,25.7266656 12.7908,25.3575264 12.7908,24.8394286 L12.7908,23.4988571 C12.7908,22.5662811 12.4290436,22.1 11.70552,22.1 Z M21.06606,20.1571429 L23.23662,33.7571429 L21.08544,33.7571429 L20.71722,31.2897143 L18.10092,31.2897143 L17.7327,33.7571429 L15.77532,33.7571429 L17.94588,20.1571429 L21.06606,20.1571429 Z M19.39938,22.5662857 L18.37224,29.444 L20.42652,29.444 L19.39938,22.5662857 Z M28.7793,33.7571429 L26.12424,23.9068571 L26.12424,33.7571429 L24.20562,33.7571429 L24.20562,20.1571429 L26.88006,20.1571429 L29.07,28.2977143 L29.07,20.1571429 L30.96924,20.1571429 L30.96924,33.7571429 L28.7793,33.7571429 Z M32.22894,23.4211429 C32.22894,22.320185 32.4937973,21.4750506 33.02352,20.8857143 C33.5532427,20.296378 34.3348948,20.0017143 35.3685,20.0017143 C36.4021052,20.0017143 37.1837573,20.296378 37.71348,20.8857143 C38.2432027,21.4750506 38.50806,22.320185 38.50806,23.4211429 L38.50806,23.8485714 L36.49254,23.8485714 L36.49254,23.2851429 C36.49254,22.3914241 36.1372435,21.9445714 35.42664,21.9445714 C34.7160365,21.9445714 34.36074,22.3914241 34.36074,23.2851429 C34.36074,23.7902882 34.5028586,24.2662834 34.7871,24.7131429 C35.0713414,25.1600022 35.416948,25.5647601 35.82393,25.9274286 C36.230912,26.2900971 36.641118,26.6689504 37.05456,27.064 C37.468002,27.4590496 37.8168386,27.9512351 38.10108,28.5405714 C38.3853214,29.1299077 38.52744,29.7807583 38.52744,30.4931429 C38.52744,31.5941007 38.2561228,32.4392351 37.71348,33.0285714 C37.1708372,33.6179077 36.3827252,33.9125714 35.34912,33.9125714 C34.3155148,33.9125714 33.5274028,33.6179077 32.98476,33.0285714 C32.4421172,32.4392351 32.1708,31.5941007 32.1708,30.4931429 L32.1708,29.6577143 L34.18632,29.6577143 L34.18632,30.6291429 C34.18632,31.5099092 34.5545363,31.9502857 35.29098,31.9502857 C36.0274237,31.9502857 36.39564,31.5099092 36.39564,30.6291429 C36.39564,30.1239975 36.2535214,29.6480022 35.96928,29.2011429 C35.6850386,28.7542834 35.339432,28.3495257 34.93245,27.9868571 C34.525468,27.6241887 34.115262,27.2453353 33.70182,26.8502857 C33.288378,26.4552362 32.9395414,25.9630506 32.6553,25.3737143 C32.3710586,24.784378 32.22894,24.1335274 32.22894,23.4211429 Z M41.88018,22.1 L41.88018,26.1994286 L44.63214,26.1994286 L44.63214,28.1422857 L41.88018,28.1422857 L41.88018,33.7571429 L39.74838,33.7571429 L39.74838,20.1571429 L45.38796,20.1571429 L45.38796,22.1 L41.88018,22.1 Z M48.5469,22.1 L48.5469,25.8885714 L51.47328,25.8885714 L51.47328,27.8314286 L48.5469,27.8314286 L48.5469,31.8142857 L52.2291,31.8142857 L52.2291,33.7571429 L46.4151,33.7571429 L46.4151,20.1571429 L52.2291,20.1571429 L52.2291,22.1 L48.5469,22.1 Z M60.1749,33.7571429 L58.00434,33.7571429 C57.8751394,33.3685695 57.81054,32.8116227 57.81054,32.0862857 L57.81054,29.9491429 C57.81054,29.3274255 57.7007211,28.8838109 57.48108,28.6182857 C57.2614389,28.3527605 56.9061424,28.22 56.41518,28.22 L55.67874,28.22 L55.67874,33.7571429 L53.54694,33.7571429 L53.54694,20.1571429 L56.76402,20.1571429 C57.8622255,20.1571429 58.6632574,20.4129499 59.16714,20.9245714 C59.6710225,21.436193 59.92296,22.2230423 59.92296,23.2851429 L59.92296,24.3537143 C59.92296,25.7525785 59.4578447,26.6721883 58.5276,27.1125714 C59.4707647,27.5140972 59.94234,28.4790399 59.94234,30.0074286 L59.94234,32.1057143 C59.94234,32.8440037 60.0198593,33.3944743 60.1749,33.7571429 Z M56.70588,22.1 L55.67874,22.1 L55.67874,26.2771429 L56.51208,26.2771429 C56.9384421,26.2771429 57.2582089,26.1670488 57.47139,25.9468571 C57.6845711,25.7266656 57.79116,25.3575264 57.79116,24.8394286 L57.79116,23.4988571 C57.79116,22.5662811 57.4294036,22.1 56.70588,22.1 Z" id="WIRE-TRANSFER"></path>
                <path d="M17.3966085,3.5052273 L18.1442308,3.5052273 L18.1442308,5.51660468 L2.125,5.51660468 L2.125,3.5052273 L2.87262226,3.5052273 L10.1346154,0 L17.3966085,3.5052273 Z M17.120682,12.863553 L18.1442308,12.863553 L18.1442308,14.875 L2.125,14.875 L2.125,12.863553 L2.89862014,12.863553 L2.89862014,6.68046735 L5.00521617,6.68046735 L5.00521617,12.8560375 L6.05211067,12.8560375 L6.05211067,6.68046735 L8.15870669,6.68046735 L8.15870669,12.863553 L11.8605955,12.863553 L11.8605955,6.68046735 L13.9671915,6.68046735 L13.9671915,12.8560375 L15.014086,12.8560375 L15.014086,6.68046735 L17.120682,6.68046735 L17.120682,12.863553 Z" id="Combined-Shape"></path>
            </g>
        </g>
    </g>
</svg>