<?xml version="1.0" encoding="UTF-8"?>
<svg width="70px" height="24px" viewBox="0 0 70 24" version="1.1" xmlns="http://www.w3.org/2000/svg" xmlns:xlink="http://www.w3.org/1999/xlink">
    <!-- Generator: Sketch 53.2 (72643) - https://sketchapp.com -->
    <title>skrill</title>
    <desc>Created with Sketch.</desc>
    <g id="Page-1" stroke="none" stroke-width="1" fill="none" fill-rule="evenodd">
        <g id="payment-icons" transform="translate(-14580.000000, -931.000000)" fill="#972772" fill-rule="nonzero">
            <g id="skrill" transform="translate(14580.000000, 931.000000)">
                <path d="M49.8704483,5.765928 C51.4448285,5.765928 52.7201991,4.475556 52.7201991,2.883792 C52.7201991,1.291608 51.4448285,0 49.8704483,0 C48.2989146,0 47.0235441,1.291608 47.0235441,2.883792 C47.0235441,4.475556 48.2989146,5.765928 49.8704483,5.765928 L49.8704483,5.765928 Z M28.0455421,7.321872 C27.916581,7.649208 26.99148,10.295004 24.7527665,13.03716 L24.7527665,1.3122 L18.788833,2.504988 L18.788833,23.758728 L24.7527665,23.758728 L24.7527665,17.189088 C26.480518,19.810608 27.333205,23.758728 27.333205,23.758728 L34.4769082,23.758728 C33.7702678,20.785584 30.6792731,15.303348 30.6792731,15.303348 C33.4533575,11.743896 34.6717739,7.951008 34.8654185,7.321872 L28.0455421,7.321872 Z M43.7242601,7.100364 C38.3827562,7.274112 35.6705087,9.699636 35.6705087,14.521464 L35.6705087,23.758728 L41.4989726,23.758728 L41.4989726,16.225632 C41.4989726,13.33896 41.8724301,12.100872 45.257146,11.983116 L45.257146,7.18518 C44.6876018,7.06248 43.7242601,7.100364 43.7242601,7.100364 L43.7242601,7.100364 Z M8.78683571,9.66258 C8.05619217,9.614412 6.36505581,9.503652 6.36505581,7.962528 C6.36505581,6.10314 8.79985357,6.10314 9.71315769,6.10314 C11.3188634,6.10314 13.3985101,6.582816 14.8837991,7.03284 C14.8837991,7.03284 15.7124841,7.32846 16.4174978,7.631088 L16.4829952,7.649208 L16.4829952,7.581672 L16.4829952,2.556456 L16.3930888,2.529696 C14.6401156,1.909212 12.6019632,1.3122 8.82344851,1.3122 C2.30827855,1.3122 0,5.153268 0,8.443848 C0,10.340712 0.803056345,14.805564 8.26488967,15.32064 C8.8970823,15.359748 10.575609,15.45774 10.575609,17.049924 C10.575609,18.365004 9.20138174,19.139892 6.89025542,19.139892 C4.35741495,19.139892 1.89942805,18.486468 0.407223709,17.866392 L0.407223709,23.111064 C2.64186847,23.703552 5.1600643,24 8.11233355,24 C14.4826767,24 17.3356834,20.36562 17.3356834,16.763772 C17.3356834,12.679776 14.1429854,10.025736 8.78683571,9.66258 L8.78683571,9.66258 Z M46.9816427,23.758728 L52.7621016,23.758728 L52.7621016,7.340808 L46.9816427,7.340808 L46.9816427,23.758728 Z M63.6468916,2.35842 L63.6468916,23.758728 L69.4285714,23.758728 L69.4285714,1.3122 L63.6468916,2.35842 Z M55.2111382,2.35842 L60.9867167,1.3122 L60.9867167,23.758728 L55.2111382,23.758728 L55.2111382,2.35842 Z"></path>
            </g>
        </g>
    </g>
</svg>