<?xml version="1.0" encoding="UTF-8"?>
<svg width="91px" height="32px" viewBox="0 0 91 32" version="1.1" xmlns="http://www.w3.org/2000/svg" xmlns:xlink="http://www.w3.org/1999/xlink">
    <!-- Generator: Sketch 53 (72520) - https://sketchapp.com -->
    <title>visa-mastercard</title>
    <desc>Created with Sketch.</desc>
    <g id="Page-1" stroke="none" stroke-width="1" fill="none" fill-rule="evenodd">
        <g id="payment-icons" transform="translate(-16801.000000, -511.000000)" fill-rule="nonzero">
            <g id="visa-mastercard" transform="translate(16800.000000, 511.000000)">
                <rect id="Rectangle-path" x="0" y="0" width="99.96997" height="31.951952"></rect>
                <rect id="Rectangle-path" fill="#FFFFFF" x="1" y="0.780780781" width="47.8078078" height="30.3603604"></rect>
                <rect id="Rectangle-path" fill="#F7B600" x="1.7807807" y="26.2162162" width="46.2162162" height="4.14414414"></rect>
                <rect id="Rectangle-path" fill="#1A1F71" x="1.7807807" y="1.59159159" width="46.2162162" height="4.14414414"></rect>
                <path d="M20.2792792,10.3003003 L15.5045045,21.6816817 L12.3813813,21.6816817 L10.039039,12.5825826 C9.8888888,12.012012 9.7687687,11.8318318 9.3483483,11.5915916 C8.4231614,11.1462992 7.4439725,10.8232678 6.4354354,10.6306306 L6.4954954,10.3003003 L11.5105105,10.3003003 C12.188391,10.3033599 12.7624848,10.8009079 12.8618618,11.4714715 L14.093093,18.048048 L17.1561561,10.3003003 L20.2792792,10.3003003 Z M32.5015015,17.957958 C32.5015015,14.954955 28.3573573,14.7747748 28.3873873,13.4534535 C28.3873873,13.033033 28.7777777,12.6126126 29.6486486,12.4924925 C30.647798,12.3991986 31.6536878,12.5754886 32.5615615,13.003003 L33.072072,10.6006006 C32.1903661,10.2620345 31.2537833,10.0889703 30.3093093,10.0900901 C27.3963963,10.0900901 25.3543543,11.6516517 25.3243243,13.8438438 C25.2942942,15.4954955 26.7957957,16.3963964 27.9069069,16.9369369 C29.018018,17.4774775 29.4384384,17.8678679 29.4384384,18.3483483 C29.4384384,19.0990991 28.5075075,19.4594595 27.6666666,19.4594595 C26.6100169,19.4886694 25.5641934,19.2401569 24.6336336,18.7387387 L24.093093,21.2312312 C25.1329566,21.6486045 26.2460649,21.8528445 27.3663663,21.8318318 C30.4594594,21.8618619 32.4714714,20.3303303 32.5015015,17.957958 Z M40.1891891,21.6816817 L42.9219219,21.6816817 L40.5495495,10.3003003 L38.027027,10.3003003 C37.4734374,10.2936682 36.9725629,10.6275846 36.7657657,11.1411411 L32.3213213,21.6816817 L35.4144144,21.6816817 L36.015015,19.96997 L39.7987988,19.96997 L40.1891891,21.6816817 Z M36.8858858,17.6576577 L38.4474474,13.3933934 L39.3483483,17.6576577 L36.8858858,17.6576577 Z M24.4834834,10.3003003 L22.051051,21.6816817 L19.1081081,21.6816817 L21.5405405,10.3003003 L24.4834834,10.3003003 Z" id="Shape" fill="#1A1F71"></path>
                <path d="M63.2252247,29.2792793 L63.2252247,27.4774775 C63.2530647,27.1724585 63.1460821,26.8705247 62.9324113,26.651079 C62.7187405,26.4316333 62.4197664,26.3166386 62.1141136,26.3363363 C61.7087601,26.3202169 61.3234091,26.5128924 61.0930926,26.8468468 C60.8926436,26.5112027 60.5224673,26.3145465 60.1321316,26.3363363 C59.7896727,26.3214041 59.4625731,26.4793142 59.2612607,26.7567568 L59.2612607,26.3963964 L58.6906902,26.3963964 L58.6906902,29.2792793 L59.2612607,29.2792793 L59.2612607,27.6276276 C59.2372367,27.4274554 59.3042625,27.2270617 59.443883,27.0816237 C59.5835035,26.9361857 59.7809957,26.8610398 59.9819814,26.8768769 C60.4024019,26.8768769 60.6426421,27.1471471 60.6426421,27.6276276 L60.6426421,29.2792793 L61.2132127,29.2792793 L61.2132127,27.6276276 C61.1891887,27.4274554 61.2562145,27.2270617 61.3958349,27.0816237 C61.5354554,26.9361857 61.7329476,26.8610398 61.9339334,26.8768769 C62.3543538,26.8768769 62.5945941,27.1471471 62.5945941,27.6276276 L62.5945941,29.2792793 L63.2252247,29.2792793 Z M72.5945941,26.4264264 L71.543543,26.4264264 L71.543543,25.5555556 L70.9729724,25.5555556 L70.9729724,26.4264264 L70.3723718,26.4264264 L70.3723718,26.9369369 L70.9729724,26.9369369 L70.9729724,28.2882883 C70.9729724,28.9489489 71.2132127,29.3393393 71.9339334,29.3393393 C72.2074338,29.3339331 72.4754692,29.2617697 72.7147142,29.1291291 L72.534534,28.6186186 C72.3726473,28.7198476 72.1848969,28.7720005 71.9939935,28.7687688 C71.8661411,28.7793113 71.7404715,28.7309028 71.6527312,28.6373132 C71.564991,28.5437236 71.5247825,28.4151954 71.543543,28.2882883 L71.543543,26.9069069 L72.5945941,26.9069069 L72.5945941,26.4264264 Z M77.9399394,26.3363363 C77.6239506,26.3298169 77.3276546,26.489361 77.1591586,26.7567568 L77.1591586,26.3963964 L76.588588,26.3963964 L76.588588,29.2792793 L77.1591586,29.2792793 L77.1591586,27.6576577 C77.1591586,27.1771772 77.3993989,26.8768769 77.7897892,26.8768769 C77.9217634,26.8821577 78.052721,26.902305 78.1801796,26.9369369 L78.3603598,26.3963964 C78.2227093,26.3617105 78.081796,26.34158 77.9399394,26.3363363 Z M69.8618613,26.6366366 C69.5102939,26.4216501 69.1023292,26.3170438 68.6906901,26.3363363 C67.9699694,26.3363363 67.519519,26.6666667 67.519519,27.2372372 C67.519519,27.7177177 67.8498493,27.987988 68.4804799,28.0780781 L68.7807802,28.1081081 C69.1111106,28.1681682 69.3213208,28.2882883 69.3213208,28.4384384 C69.3213208,28.6486486 69.0810805,28.7987988 68.6306301,28.7987988 C68.2861607,28.8059729 67.9487601,28.7005352 67.6696691,28.4984985 L67.3693688,28.9489489 C67.7341919,29.1901734 68.1632861,29.315762 68.6006001,29.3093093 C69.4414409,29.3093093 69.8918914,28.9189189 69.8918914,28.3783784 C69.8918914,27.8378378 69.531531,27.6276276 68.9009004,27.5375375 L68.6006001,27.5075075 C68.3303298,27.4774775 68.0900895,27.3873874 68.0900895,27.2072072 C68.0900895,27.027027 68.3303298,26.8468468 68.6606601,26.8468468 C68.9748438,26.8605503 69.2822713,26.942531 69.561561,27.0870871 L69.8618613,26.6366366 Z M78.6006001,27.8378378 C78.5757487,28.2431698 78.7259443,28.6396928 79.0130954,28.926844 C79.3002466,29.2139951 79.6967696,29.3641907 80.1021016,29.3393393 C80.4715134,29.3587621 80.8350936,29.2411332 81.1231226,29.009009 L80.8228223,28.5585586 C80.6106786,28.7315614 80.3458073,28.826915 80.0720715,28.8288288 C79.5707408,28.7891642 79.1841375,28.3707653 79.1841375,27.8678679 C79.1841375,27.3649704 79.5707408,26.9465715 80.0720715,26.9069069 C80.3458073,26.9088207 80.6106786,27.0041744 80.8228223,27.1771772 L81.1231226,26.7267267 C80.8350936,26.4946025 80.4715134,26.3769736 80.1021016,26.3963964 C79.7017571,26.3483484 79.3009696,26.4824 79.0100937,26.7616409 C78.7192177,27.0408819 78.5689258,27.4358663 78.6006001,27.8378378 Z M74.546546,26.3363363 C73.7057052,26.3363363 73.1351346,26.9369369 73.1351346,27.8378378 C73.1091263,28.2381866 73.2547227,28.6306862 73.5355289,28.9172232 C73.8163352,29.2037601 74.2058136,29.3572553 74.6066061,29.3393393 C75.0303318,29.3481416 75.444078,29.2102262 75.7777772,28.9489489 L75.4774769,28.5285285 C75.2362464,28.7154686 74.9417131,28.8206591 74.6366361,28.8288288 C74.1943889,28.8456695 73.8142689,28.5179798 73.7657652,28.0780781 L75.8978974,28.0780781 L75.8978974,27.8378378 C75.8978974,26.9369369 75.3573568,26.3363363 74.546546,26.3363363 Z M74.546546,26.8768769 C74.7430754,26.8678193 74.9347069,26.9398337 75.0766313,27.0760811 C75.2185556,27.2123285 75.2983285,27.4008623 75.2973066,27.5975976 L73.7357352,27.5975976 C73.7631022,27.1758884 74.1245366,26.8546134 74.546546,26.8768769 Z M66.7687682,27.8378378 L66.7687682,26.3963964 L66.1981977,26.3963964 L66.1981977,26.7567568 C65.9751573,26.4730085 65.6276119,26.3160525 65.2672667,26.3363363 C64.4380103,26.3363363 63.7657652,27.0085815 63.7657652,27.8378378 C63.7657652,28.6670942 64.4380103,29.3393393 65.2672667,29.3393393 C65.6276119,29.3596232 65.9751573,29.2026672 66.1981977,28.9189189 L66.1981977,29.2792793 L66.7687682,29.2792793 L66.7687682,27.8378378 Z M64.4264259,27.8378378 C64.4590596,27.3494393 64.8756935,26.9764587 65.364713,26.9978608 C65.8537325,27.0192629 66.2361885,27.427216 66.2260292,27.9165982 C66.21587,28.4059803 65.8168132,28.7977098 65.3273268,28.7987988 C65.0758795,28.804924 64.8337565,28.7035122 64.6617304,28.5200177 C64.4897042,28.3365231 64.4041079,28.0883676 64.4264259,27.8378378 Z M86.6186181,26.3363363 C86.3026293,26.3298169 86.0063332,26.489361 85.8378373,26.7567568 L85.8378373,26.3963964 L85.2672667,26.3963964 L85.2672667,29.2792793 L85.8378373,29.2792793 L85.8378373,27.6576577 C85.8378373,27.1771772 86.0780775,26.8768769 86.4684679,26.8768769 C86.6004421,26.8821577 86.7313997,26.902305 86.8588583,26.9369369 L87.0390385,26.3963964 C86.901388,26.3617105 86.7604746,26.34158 86.6186181,26.3363363 Z M91.2432427,28.8588589 C91.285573,28.8543652 91.3281272,28.8650038 91.3633628,28.8888889 C91.3933929,28.8888889 91.4234229,28.9189189 91.4534529,28.9489489 C91.4834829,28.978979 91.513513,29.009009 91.513513,29.039039 C91.513513,29.0690691 91.543543,29.0990991 91.543543,29.1591592 C91.5480366,29.2014894 91.5373981,29.2440437 91.513513,29.2792793 C91.4834829,29.3093093 91.4834829,29.3393393 91.4534529,29.3693694 C91.4234229,29.3993994 91.3933929,29.4294294 91.3633628,29.4294294 C91.3333328,29.4294294 91.3033028,29.4594595 91.2432427,29.4594595 C91.2009124,29.4639531 91.1583582,29.4533145 91.1231226,29.4294294 C91.0930926,29.3993994 91.0630625,29.3993994 91.0330325,29.3693694 C91.0030025,29.3393393 90.9729724,29.3093093 90.9729724,29.2792793 C90.9729724,29.2492492 90.9429424,29.2192192 90.9429424,29.1591592 C90.9384488,29.1168289 90.9490873,29.0742746 90.9729724,29.039039 C91.0030025,29.009009 91.0030025,28.978979 91.0330325,28.9489489 C91.0630625,28.9189189 91.0930926,28.8888889 91.1231226,28.8888889 C91.1531526,28.8888889 91.2132127,28.8588589 91.2432427,28.8588589 Z M91.2432427,29.3693694 C91.2762532,29.3733428 91.3093084,29.3623244 91.3333328,29.3393393 C91.3652747,29.3365463 91.3905998,29.3112212 91.3933929,29.2792793 L91.4534529,29.2192192 C91.4534529,29.1891892 91.4834829,29.1591592 91.4834829,29.1291291 C91.4874564,29.0961186 91.476438,29.0630634 91.4534529,29.039039 C91.4506599,29.0070971 91.4253348,28.981772 91.3933929,28.978979 L91.3333328,28.9189189 C91.3033028,28.9189189 91.2732727,28.8888889 91.2432427,28.8888889 C91.2102322,28.8849155 91.177177,28.8959338 91.1531526,28.9189189 C91.1212107,28.9217119 91.0958856,28.947037 91.0930926,28.978979 L91.0330325,29.039039 C91.0330325,29.0690691 91.0030025,29.0990991 91.0030025,29.1291291 C90.999029,29.1621397 91.0100474,29.1951948 91.0330325,29.2192192 C91.0358255,29.2511612 91.0611506,29.2764863 91.0930926,29.2792793 L91.1531526,29.3393393 C91.177177,29.3623244 91.2102322,29.3733428 91.2432427,29.3693694 Z M91.2732727,29.039039 C91.3062833,29.0350656 91.3393384,29.046084 91.3633628,29.0690691 C91.3933929,29.0990991 91.3933929,29.0990991 91.3933929,29.1291291 C91.3933929,29.1591592 91.3933929,29.1591592 91.3633628,29.1891892 C91.347165,29.2054971 91.3260678,29.2160457 91.3033028,29.2192192 L91.3933929,29.3093093 L91.3033028,29.3093093 L91.2132127,29.2192192 L91.1831826,29.2192192 L91.1831826,29.3093093 L91.1231226,29.3093093 L91.1231226,29.039039 L91.2732727,29.039039 Z M84.3963959,27.8378378 L84.3963959,26.3963964 L83.8258253,26.3963964 L83.8258253,26.7567568 C83.602785,26.4730085 83.2552395,26.3160525 82.8948944,26.3363363 C82.065638,26.3363363 81.3933929,27.0085815 81.3933929,27.8378378 C81.3933929,28.6670942 82.065638,29.3393393 82.8948944,29.3393393 C83.2552395,29.3596232 83.602785,29.2026672 83.8258253,28.9189189 L83.8258253,29.2792793 L84.3963959,29.2792793 L84.3963959,27.8378378 Z M82.0840835,27.8378378 C82.1167173,27.3494393 82.5333511,26.9764587 83.0223706,26.9978608 C83.5113901,27.0192629 83.8938461,27.427216 83.8836869,27.9165982 C83.8735277,28.4059803 83.4744709,28.7977098 82.9849844,28.7987988 C82.4144139,28.8288288 82.0840835,28.3783784 82.0840835,27.8378378 Z M90.2222217,27.8378378 L90.2222217,25.2552553 L89.6516511,25.2552553 L89.6516511,26.7567568 C89.4286108,26.4730085 89.0810654,26.3160525 88.7207202,26.3363363 C87.8914638,26.3363363 87.2192187,27.0085815 87.2192187,27.8378378 C87.2192187,28.6670942 87.8914638,29.3393393 88.7207202,29.3393393 C89.0810654,29.3596232 89.4286108,29.2026672 89.6516511,28.9189189 L89.6516511,29.2792793 L90.2222217,29.2792793 L90.2222217,27.8378378 Z M87.8798793,27.8378378 C87.9125131,27.3494393 88.3291469,26.9764587 88.8181664,26.9978608 C89.3071859,27.0192629 89.6896419,27.427216 89.6794827,27.9165982 C89.6693235,28.4059803 89.2702666,28.7977098 88.7807802,28.7987988 C88.529333,28.804924 88.2872099,28.7035122 88.1151838,28.5200177 C87.9431577,28.3365231 87.8575613,28.0883676 87.8798793,27.8378378 Z" id="_Compound_Path_" fill="#000000"></path>
                <g id="_Group_" transform="translate(56.648649, 2.102102)">
                    <rect id="Rectangle-path" fill="#FF5F00" x="12.5525526" y="2.43243243" width="10.4204204" height="16.996997"></rect>
                    <path d="M13.6336336,10.9309309 C13.6345415,7.61831179 15.1499666,4.48790797 17.7477477,2.43243243 C14.0247921,-0.494756974 8.8300271,-0.658017113 4.93060976,2.02961773 C1.03119241,4.71725257 -0.664972264,9.63001783 0.745631845,14.1509727 C2.15623595,18.6719275 6.34517656,21.7484538 11.0810811,21.7417417 C13.5002454,21.7434444 15.8491974,20.9287178 17.7477477,19.4294294 C15.1499666,17.3739539 13.6345415,14.2435501 13.6336336,10.9309309 Z" id="_Path_" fill="#EB001B"></path>
                    <path d="M34.2042042,17.7072072 L34.2042042,17.2786358 L34.3543544,17.2786358 L34.3543544,17.2072072 L33.993994,17.2072072 L33.993994,17.2786358 L34.1441441,17.2786358 L34.1441441,17.7072072 L34.2042042,17.7072072 Z M34.9249249,17.7072072 L34.9249249,17.2072072 L34.8048048,17.2072072 L34.6846847,17.5643501 L34.5645646,17.2072072 L34.4444444,17.2072072 L34.4444444,17.7072072 L34.5345345,17.7072072 L34.5345345,17.3143501 L34.6546547,17.6357786 L34.7447447,17.6357786 L34.8648649,17.3143501 L34.8648649,17.7072072 L34.9249249,17.7072072 Z" id="Shape" fill="#F79E1B"></path>
                    <path d="M35.2552553,10.9309309 C35.2506555,15.0645155 32.8893908,18.8336445 29.1719848,20.6412491 C25.4545787,22.4488538 21.0318363,21.9784774 17.7777778,19.4294294 C20.3762396,17.3745082 21.8918114,14.2437402 21.8918114,10.9309309 C21.8918114,7.61812168 20.3762396,4.4873537 17.7777778,2.43243243 C21.0318363,-0.116615503 25.4545787,-0.586991935 29.1719848,1.22061272 C32.8893908,3.02821738 35.2506555,6.79734639 35.2552553,10.9309309 Z" id="Shape" fill="#F79E1B"></path>
                </g>
            </g>
        </g>
    </g>
</svg>