<svg width="72px" heigth="72px" viewBox="0 0 72 72" id="icon_mainpage_services_platform" xmlns="http://www.w3.org/2000/svg"><g fill="none" fill-rule="evenodd"><path fill="#F4F4F9" d="M72 36c0 19.882-16.118 36-36 36S0 55.882 0 36 16.118 0 36 0s36 16.118 36 36z"></path><circle cx="36" cy="36" r="19" fill="#9F9FCD" fill-rule="nonzero" opacity=".3"></circle><path fill="#FFF" d="M19 19h30v19H19z"></path><path fill="#25258E" fill-rule="nonzero" d="M36 43h-3.5v3H36v-3zm1.5 0v3h1.75a.75.75 0 1 1 0 1.5h-12.5a.75.75 0 1 1 0-1.5H31v-3H20a2 2 0 0 1-2-2V20a2 2 0 0 1 2-2h28a2 2 0 0 1 2 2v21a2 2 0 0 1-2 2H37.5zm-18-6H40v1.5H19.5V41a.5.5 0 0 0 .5.5h28a.5.5 0 0 0 .5-.5V20a.5.5 0 0 0-.5-.5H20a.5.5 0 0 0-.5.5v17z"></path><path fill="#FFF" d="M40 35h13v14H40z"></path><path fill="#DADAEB" d="M43 31h7a3 3 0 0 1 3 3v2H40v-2a3 3 0 0 1 3-3zm0 23h7a3 3 0 0 0 3-3v-2H40v2a3 3 0 0 0 3 3z"></path><path fill="#25258E" fill-rule="nonzero" d="M40.5 48h12V36.5h-12V48zm0 1.5V51a1.5 1.5 0 0 0 1.5 1.5h9a1.5 1.5 0 0 0 1.5-1.5v-1.5h-12zm0-14.5h12v-1a1.5 1.5 0 0 0-1.5-1.5h-9a1.5 1.5 0 0 0-1.5 1.5v1zm1.5-4h9a3 3 0 0 1 3 3v17a3 3 0 0 1-3 3h-9a3 3 0 0 1-3-3V34a3 3 0 0 1 3-3z"></path></g></svg>