<svg width="72px" heigth="72px" xmlns="http://www.w3.org/2000/svg" viewBox="0 0 72 72" id="icon_mainpage_steps_trade"><g fill="none" fill-rule="evenodd"><path fill="#F4F4F9" d="M72 36c0 19.882-16.118 36-36 36S0 55.882 0 36 16.118 0 36 0s36 16.118 36 36z"></path><circle cx="36" cy="36" r="20" fill="#DADAEB" fill-rule="nonzero"></circle><path fill="#FFF" d="M29 23.6h6.4v16.8H29zm19.689 4.8h6.4v8.8h-6.4z"></path><path fill="#FFF" fill-rule="nonzero" d="M44.954 42.349l-.167.167h-4.924l-.167-.167v-5.44l.167-.167h4.924l.167.167zM24.61 46.02l-.166.167H19.52l-.167-.167v-3.19l.167-.167h4.924l.167.167z"></path><path fill="#25258E" fill-rule="nonzero" d="M25.324 41.237h-2.462l-.167-.167V25.996a.713.713 0 0 0-1.426 0V41.07l-.167.167H18.64a.713.713 0 0 0-.713.713v4.95c0 .394.319.713.713.713h2.462l.167.167v4.82a.713.713 0 0 0 1.426 0v-4.82l.167-.167h2.462a.713.713 0 0 0 .713-.713v-4.95a.713.713 0 0 0-.713-.713zm13.659 2.705h2.462l.167.167v5.71a.713.713 0 0 0 1.426 0v-5.71l.167-.167h2.462a.713.713 0 0 0 .713-.713v-7.2a.713.713 0 0 0-.713-.713h-2.462l-.167-.167V26a.713.713 0 0 0-1.426 0v9.149l-.167.167h-2.462a.713.713 0 0 0-.713.713v7.2c0 .394.319.713.713.713zm10.173-6.163h2.462l.167.167v6.785a.713.713 0 0 0 1.426 0v-6.785l.167-.167h2.462a.713.713 0 0 0 .713-.713v-8.862a.713.713 0 0 0-.713-.713h-2.462l-.167-.167v-5.441a.713.713 0 1 0-1.426 0v5.441l-.167.167h-2.462a.713.713 0 0 0-.713.713v8.862c0 .394.319.713.713.713zm-20.343 3.558h2.462l.167.167v4.898a.713.713 0 1 0 1.426-.004v-4.894l.167-.167H35.5a.713.713 0 0 0 .713-.713v-17.1a.713.713 0 0 0-.713-.713h-2.465l-.167-.167V15.4a.713.713 0 1 0-1.426 0v7.244l-.167.167h-2.462a.713.713 0 0 0-.713.713v17.1c0 .394.319.713.713.713zm5.974-1.593l-.167.167h-4.924l-.167-.167-.003-15.34.167-.167h4.927l.167.167v15.34zm20.34-3.558l-.167.167h-4.924l-.167-.167v-7.102l.167-.167h4.924l.167.167v7.102zm-10.173 6.163l-.167.167h-4.924l-.167-.167v-5.44l.167-.167h4.924l.167.167v5.44zM24.61 46.02l-.167.167H19.52l-.167-.167v-3.19l.167-.167h4.924l.167.167v3.19z"></path></g></svg>