<svg width="72px" heigth="72px" viewBox="0 0 72 72" id="icon_mainpage_services_practice" xmlns="http://www.w3.org/2000/svg"><g fill="none" fill-rule="evenodd"><path fill="#F4F4F9" d="M72 36c0 19.882-16.118 36-36 36S0 55.882 0 36 16.118 0 36 0s36 16.118 36 36z"></path><circle cx="36" cy="36" r="20.455" fill="#9F9FCD" fill-rule="nonzero" opacity=".3"></circle><g fill-rule="nonzero"><path fill="#FFF" d="M14.577 30.46c.115-.094.245-.168.383-.22l19.159-7.977c.975-.406 2.686-.406 3.66 0l19.16 7.976c.138.053.267.127.383.22a1.398 1.398 0 0 1-.384.22L37.78 38.656c-.975.406-2.686.406-3.661 0L14.96 30.679a1.398 1.398 0 0 1-.383-.22z"></path><path fill="#25258E" d="M55.861 44.729V32.667l1.624-.676c1.136-.473 1.306-1.163 1.306-1.532 0-.37-.17-1.06-1.306-1.532L38.326 20.95c-1.333-.555-3.42-.555-4.754 0l-19.159 7.977c-1.136.473-1.305 1.163-1.305 1.532 0 .37.17 1.06 1.305 1.532l6.602 2.75v9.93a.68.68 0 0 0 .711.674h1.012c3.712 0 7.445 3.425 9.915 5.679 1.653 1.508 2.414 2.184 3.131 2.184.705 0 1.463-.68 3.108-2.19 2.458-2.254 6.173-5.674 9.773-5.674h1.202a.68.68 0 0 0 .712-.674v-9.804l3.86-1.607v11.46a3.757 3.757 0 1 0 1.422.009zm-41.284-14.27c.115-.093.245-.167.383-.22l19.159-7.976c.975-.406 2.686-.406 3.66 0l19.16 7.976c.138.053.267.127.383.22a1.398 1.398 0 0 1-.384.22L37.78 38.656c-.975.406-2.686.406-3.661 0L14.96 30.679a1.398 1.398 0 0 1-.383-.22zm34.58 13.463h-.492c-4.154 0-8.114 3.65-10.734 6.053-.797.73-1.78 1.642-2.15 1.799-.374-.153-1.365-1.072-2.17-1.805-2.632-2.402-6.61-6.047-10.873-6.047h-.3v-8.59l11.134 4.637c.666.277 1.522.416 2.377.416.856 0 1.71-.139 2.377-.416l10.83-4.51v8.463zm5.968 6.853a2.348 2.348 0 1 1-.023-4.697 2.348 2.348 0 0 1 .023 4.697z"></path></g></g></svg>