<svg width="25" height="30" xmlns="http://www.w3.org/2000/svg">
  <path d="M24.28 23.867a16.118 16.118 0 01-1.583 2.862c-.832 1.193-1.514 2.019-2.039 2.477-.814.753-1.686 1.138-2.62 1.16-.671 0-1.48-.191-2.421-.58-.945-.388-1.813-.58-2.606-.58-.833 0-1.725.192-2.68.58-.957.389-1.727.591-2.316.611-.896.039-1.789-.358-2.68-1.19-.569-.5-1.28-1.355-2.133-2.566-.914-1.294-1.666-2.794-2.255-4.504C.317 20.29 0 18.501 0 16.77c0-1.983.426-3.694 1.28-5.128a7.532 7.532 0 012.682-2.727 7.185 7.185 0 013.625-1.028c.712 0 1.645.221 2.804.656 1.156.436 1.899.657 2.224.657.244 0 1.068-.258 2.467-.774 1.322-.478 2.438-.677 3.352-.599 2.477.201 4.338 1.183 5.575 2.952-2.215 1.35-3.31 3.24-3.289 5.664.02 1.889.701 3.46 2.04 4.708a6.704 6.704 0 002.04 1.345c-.164.477-.336.934-.52 1.372zM18.6 1.392c0 1.48-.539 2.863-1.611 4.142-1.294 1.52-2.86 2.4-4.556 2.261a4.633 4.633 0 01-.035-.56c0-1.422.616-2.943 1.709-4.186.545-.63 1.239-1.154 2.08-1.571.84-.412 1.634-.639 2.381-.678.022.198.031.396.031.592z" fill="#777B83" fill-rule="nonzero"/>
</svg>
