<?xml version="1.0" encoding="UTF-8"?>
<svg width="89px" height="15px" viewBox="0 0 89 15" version="1.1" xmlns="http://www.w3.org/2000/svg" xmlns:xlink="http://www.w3.org/1999/xlink">
    <!-- Generator: Sketch 53.2 (72643) - https://sketchapp.com -->
    <title>neteller</title>
    <desc>Created with Sketch.</desc>
    <g id="Page-1" stroke="none" stroke-width="1" fill="none" fill-rule="evenodd">
        <g id="payment-icons" transform="translate(-10812.000000, -412.000000)" fill="#7BB928" fill-rule="nonzero">
            <g id="neteller" transform="translate(10812.000000, 412.000000)">
                <path d="M82.5022821,6.54595714 C82.0005403,6.88999286 81.2723453,7.06008214 80.2759499,7.06008214 L79.8435229,7.06008214 L79.2878257,7.06008214 L80.0455588,3.03432857 L80.4295447,3.03432857 L80.7721786,3.03432857 C81.5992255,3.03432857 82.2033638,3.16527857 82.6196438,3.43104643 C82.9449488,3.63948214 83.3305109,4.0521 83.3305109,4.83508929 C83.3305109,5.77847143 82.8819357,6.28599643 82.5022821,6.54595714 L82.5022821,6.54595714 Z M23.5566645,11.5983964 L15.9096296,11.5983964 L16.4038889,8.96698929 L21.2003682,8.96698929 L21.7454314,6.00318214 L16.9950305,6.00318214 L17.4542386,3.39889286 L25.0878834,3.39889286 L23.5566645,11.5983964 L23.5566645,11.5983964 Z M86.6217647,1.14019286 C85.4973736,0.382007143 83.7960196,0 81.5653562,0 L75.7232527,0 L73.5516634,11.5987821 L65.89872,11.5987821 L66.3894346,8.967375 L71.0000261,8.967375 L71.5482397,6.0117 L66.9404063,6.01983214 L67.4338769,3.39966429 L72.181915,3.39966429 L72.813622,0.000385714286 L63.1686776,0.000385714286 L61.1073606,11.0036893 L57.5707495,11.0036893 L59.6470316,0.000385714286 L54.6048017,0.000385714286 L52.5434847,11.0036893 L49.0950926,11.0036893 L51.1733431,0.000385714286 L46.1362331,0.000385714286 L43.9591296,11.5991679 L36.2518377,11.5991679 L36.7374325,8.96777143 L41.3688965,8.96777143 L41.914354,6.02913214 L37.2899793,6.02486786 L37.7810871,3.39966429 L42.5818987,3.39966429 L43.2104553,0.000385714286 L13.1622582,0.000385714286 L11.4518453,9.19208571 L8.04441176,0 L2.81471678,0 L0,15 L4.99418301,15 L6.69750654,5.5557 L10.0045131,15 L27.9049641,15 L30.0808856,3.39927857 L32.8818181,3.39927857 L30.7047146,15 L77.8062298,15 L79.1704641,7.676475 L81.3818301,15 L86.3787702,15 L84.0894248,9.01618929 L84.6120403,8.90500714 C85.7636046,8.66247857 86.6650861,8.13983571 87.2904913,7.35684643 C87.9170773,6.56649643 88.2352941,5.55182143 88.2352941,4.332975 C88.2356874,2.91345 87.7087407,1.86971786 86.6217647,1.14019286 L86.6217647,1.14019286 Z"></path>
            </g>
        </g>
    </g>
</svg>