<?xml version="1.0" encoding="UTF-8"?>
<svg width="100px" height="25px" viewBox="0 0 100 25" version="1.1" xmlns="http://www.w3.org/2000/svg" xmlns:xlink="http://www.w3.org/1999/xlink">
    <!-- Generator: Sketch 53.2 (72643) - https://sketchapp.com -->
    <title>paypal</title>
    <desc>Created with Sketch.</desc>
    <g id="Page-1" stroke="none" stroke-width="1" fill="none" fill-rule="evenodd">
        <g id="payment-icons" transform="translate(-12300.000000, -1139.000000)">
            <g id="paypal" transform="translate(12300.000000, 1139.000000)">
                <g id="Group-56" transform="translate(0.100768, 0.088028)">
                    <path d="M8.68444292,5.70422535 L15.4978232,5.70422535 C19.159795,5.70422535 20.5330345,7.5528169 20.3217669,10.2816901 C19.9696542,14.7711268 17.2583866,17.2711268 13.6492317,17.2711268 L11.8358514,17.2711268 C11.3428936,17.2711268 11.0083866,17.6056338 10.8675415,18.4859155 L10.0928936,23.6443662 C10.0400767,23.9788732 9.86402039,24.1725352 9.59993588,24.2077465 L5.32176686,24.2077465 C4.91683729,24.2077465 4.77599222,23.9084507 4.88162602,23.2394366 L7.48725982,6.70774648 C7.61049926,6.02112676 7.98021757,5.70422535 8.68444292,5.70422535 Z" id="Path" fill="#009CDE"></path>
                    <path d="M4.42387954,-3.44613227e-13 L11.2548655,-3.44613227e-13 C13.1738795,-3.44613227e-13 15.4626119,0.0704225352 16.9766964,1.4084507 C17.9978232,2.30633803 18.5259922,3.73239437 18.4027528,5.28169014 C17.9802176,10.4929577 14.8640204,13.415493 10.6914852,13.415493 L7.32880912,13.415493 C6.7478232,13.415493 6.37810489,13.8028169 6.21965419,14.8239437 L5.2865556,20.8098592 C5.2337387,21.1971831 5.05768236,21.4260563 4.75838658,21.4612676 L0.550640104,21.4612676 C0.0752879911,21.4612676 -0.0831627131,21.1091549 0.0400767235,20.334507 L3.0506401,1.1443662 C3.17387954,0.36971831 3.59641475,-3.44613227e-13 4.42387954,-3.44613227e-13 Z" id="Path" fill="#0D1C76"></path>
                    <path d="M6.30768236,14.2253521 L7.50486546,6.67253521 C7.61049926,6.00352113 7.98021757,5.68661972 8.68444292,5.68661972 L15.4978232,5.68661972 C16.6245838,5.68661972 17.5400767,5.86267606 18.2619077,6.17957746 C17.575288,10.8274648 14.5823302,13.3978873 10.6386683,13.3978873 L7.29359785,13.3978873 C6.83585137,13.415493 6.51894996,13.6443662 6.30768236,14.2253521 Z" id="Path" fill="#0C125F"></path>
                </g>
                <path d="M38.3978873,5.47535211 C40.7042254,5.47535211 42.8169014,6.72535211 42.5352113,9.8415493 C42.1830986,13.5387324 40.2112676,15.5809859 37.0774648,15.5985915 L34.3485915,15.5985915 C33.9612676,15.5985915 33.7676056,15.915493 33.6619718,16.584507 L33.1338028,19.9471831 C33.0457746,20.4577465 32.7992958,20.7042254 32.4119718,20.7042254 L29.8767606,20.7042254 C29.471831,20.7042254 29.3309859,20.4401408 29.4190141,19.8591549 L31.5140845,6.4084507 C31.6197183,5.73943662 31.8661972,5.49295775 32.3239437,5.49295775 L38.3978873,5.49295775 L38.3978873,5.47535211 Z M34.2605634,12.693662 L36.3380282,12.693662 C37.6232394,12.6408451 38.4859155,11.7429577 38.5739437,10.1408451 C38.6267606,9.13732394 37.9577465,8.43309859 36.8838028,8.43309859 L34.9295775,8.45070423 L34.2605634,12.693662 L34.2605634,12.693662 Z M49.4366197,19.6478873 C49.665493,19.4366197 49.9119718,19.3309859 49.8767606,19.5950704 L49.7887324,20.2112676 C49.7535211,20.528169 49.8767606,20.7042254 50.1760563,20.7042254 L52.4295775,20.7042254 C52.8169014,20.7042254 52.9929577,20.5457746 53.0809859,19.9647887 L54.471831,11.2323944 C54.5422535,10.7922535 54.4366197,10.5809859 54.1021127,10.5809859 L51.6197183,10.5809859 C51.3908451,10.5809859 51.2852113,10.7042254 51.2323944,11.056338 L51.1443662,11.6021127 C51.0915493,11.8838028 50.9683099,11.9366197 50.8450704,11.6549296 C50.4225352,10.6514085 49.3485915,10.2112676 47.8521127,10.2464789 C44.3661972,10.3169014 42.0246479,12.9577465 41.778169,16.3556338 C41.584507,18.9788732 43.4683099,21.0387324 45.9330986,21.0387324 C47.7288732,21.0035211 48.5387324,20.4753521 49.4366197,19.6478873 L49.4366197,19.6478873 Z M47.5528169,18.3098592 C46.056338,18.3098592 45.0176056,17.1126761 45.2288732,15.6514085 C45.4401408,14.1901408 46.8485915,12.9929577 48.3450704,12.9929577 C49.8415493,12.9929577 50.8802817,14.1901408 50.6690141,15.6514085 C50.4577465,17.1126761 49.0492958,18.3098592 47.5528169,18.3098592 L47.5528169,18.3098592 Z M58.9084507,10.5633803 L56.6197183,10.5633803 C56.1443662,10.5633803 55.9507042,10.915493 56.1091549,11.3556338 L58.943662,19.6830986 L56.1619718,23.6267606 C55.9330986,23.9612676 56.1091549,24.2605634 56.443662,24.2605634 L59.0140845,24.2605634 C59.4014085,24.2605634 59.5774648,24.1549296 59.7711268,23.8908451 L68.5035211,11.3556338 C68.7676056,10.9683099 68.6443662,10.5633803 68.2042254,10.5633803 L65.7746479,10.5633803 C65.3521127,10.5633803 65.193662,10.721831 64.9471831,11.0739437 L61.3028169,16.3556338 L59.6830986,11.056338 C59.5950704,10.7394366 59.3485915,10.5633803 58.9084507,10.5633803 Z" id="Shape" fill="#0D1C76"></path>
                <path d="M77.6056338,5.47535211 C79.9119718,5.47535211 82.0246479,6.72535211 81.7429577,9.8415493 C81.3908451,13.5387324 79.4190141,15.5809859 76.2852113,15.5985915 L73.556338,15.5985915 C73.1690141,15.5985915 72.9753521,15.915493 72.8697183,16.584507 L72.3415493,19.9471831 C72.2535211,20.4577465 72.0070423,20.7042254 71.6197183,20.7042254 L69.084507,20.7042254 C68.6795775,20.7042254 68.5387324,20.4401408 68.6267606,19.8591549 L70.721831,6.4084507 C70.8274648,5.73943662 71.0739437,5.49295775 71.5316901,5.49295775 L77.6056338,5.49295775 L77.6056338,5.47535211 Z M73.4683099,12.693662 L75.5457746,12.693662 C76.8309859,12.6408451 77.693662,11.7429577 77.7816901,10.1408451 C77.834507,9.13732394 77.165493,8.43309859 76.0915493,8.43309859 L74.1373239,8.45070423 L73.4683099,12.693662 L73.4683099,12.693662 Z M88.6443662,19.6478873 C88.8732394,19.4366197 89.1197183,19.3309859 89.084507,19.5950704 L88.9964789,20.2112676 C88.9612676,20.528169 89.084507,20.7042254 89.3838028,20.7042254 L91.6373239,20.7042254 C92.0246479,20.7042254 92.2007042,20.5457746 92.2887324,19.9647887 L93.6795775,11.2323944 C93.75,10.7922535 93.6443662,10.5809859 93.3098592,10.5809859 L90.8450704,10.5809859 C90.6161972,10.5809859 90.5105634,10.7042254 90.4577465,11.056338 L90.3697183,11.6021127 C90.3169014,11.8838028 90.193662,11.9366197 90.0704225,11.6549296 C89.6478873,10.6514085 88.5739437,10.2112676 87.0774648,10.2464789 C83.5915493,10.3169014 81.25,12.9577465 81.0035211,16.3556338 C80.8098592,18.9788732 82.693662,21.0387324 85.1584507,21.0387324 C86.9366197,21.0035211 87.7464789,20.4753521 88.6443662,19.6478873 L88.6443662,19.6478873 Z M86.7605634,18.3098592 C85.2640845,18.3098592 84.2253521,17.1126761 84.4366197,15.6514085 C84.6478873,14.1901408 86.056338,12.9929577 87.5528169,12.9929577 C89.0492958,12.9929577 90.0880282,14.1901408 89.8767606,15.6514085 C89.6478873,17.1126761 88.2570423,18.3098592 86.7605634,18.3098592 L86.7605634,18.3098592 Z M97.165493,20.7394366 L94.5598592,20.7394366 C94.3485915,20.7394366 94.2077465,20.5809859 94.2429577,20.3873239 L96.5316901,5.88028169 C96.5669014,5.68661972 96.7605634,5.52816901 96.971831,5.52816901 L99.5774648,5.52816901 C99.7887324,5.52816901 99.9295775,5.68661972 99.8943662,5.88028169 L97.6056338,20.3873239 C97.5704225,20.5633803 97.3767606,20.7394366 97.165493,20.7394366 Z" id="Shape" fill="#009CDE"></path>
            </g>
        </g>
    </g>
</svg>