<svg width="72px" heigth="72px" viewBox="0 0 72 72" id="icon_mainpage_steps_register" xmlns="http://www.w3.org/2000/svg"><g fill="none" fill-rule="evenodd"><path fill="#F4F4F9" d="M72 36c0 19.882-16.118 36-36 36S0 55.882 0 36 16.118 0 36 0s36 16.118 36 36z"></path><circle cx="36" cy="36" r="20" fill="#DADAEB" fill-rule="nonzero"></circle><g transform="translate(22 18)"><rect width="25" height="33" x="1" y="1" fill="#FFF" rx="1"></rect><path fill="#FFF" d="M19.13 1.471h3.678v4.415h-3.679V1.47zm10.466 7.786l2.081 2.08L16.59 26.426a1.471 1.471 0 0 1-2.08-2.081L29.595 9.257z"></path><path fill="#25258E" fill-rule="nonzero" d="M32.229 10.322a.711.711 0 0 1 0 1.006l-1.103 1.104a.711.711 0 0 1-.094.89l-.693.694.693.693a.71.71 0 0 1 0 1.007l-4.092 4.092-.11-.11v13.19a1.84 1.84 0 0 1-1.84 1.839H2.428a1.84 1.84 0 0 1-1.84-1.84V2.427A1.84 1.84 0 0 1 2.429.59H24.99a1.84 1.84 0 0 1 1.84 1.839v8.3l.803-.804a.711.711 0 0 1 .891-.094l1.104-1.103a.711.711 0 0 1 1.006 0l1.595 1.595zm-5.48 2.498l1.387 1.387 1.388-1.387-1.388-1.388-1.387 1.388zm.382 2.393l-1.388-1.388-9.364 9.365 1.387 1.387 9.365-9.364zM14.739 26.339l1.942-.834-1.226-1.23-.834 1.944.118.12zM22.023 2.01h-1.962v3.213l.478-.479a.712.712 0 0 1 1.006 0l.478.479V2.01zm-3.384 0H2.428a.417.417 0 0 0-.417.417v30.46c0 .23.187.416.417.416H24.99c.23 0 .417-.186.417-.417v-13.94l-7.539 7.536a.701.701 0 0 1-.223.15l-2.792 1.198a.711.711 0 0 1-.667-.058l-.704.705a.711.711 0 1 1-1.006-1.006l.704-.704a.712.712 0 0 1-.057-.668l1.198-2.791a.698.698 0 0 1 .15-.223l10.936-10.937v-9.72a.417.417 0 0 0-.417-.417h-1.545v4.93a.711.711 0 0 1-1.214.502l-1.189-1.189-1.19 1.19a.712.712 0 0 1-1.213-.504V2.011zm10.695 13.01l-2.504 2.504v.381l2.694-2.693-.19-.192zm1.387-4.196l-.589-.59-.59.59.589.59.59-.59zM5.2 10.742h13.06a.785.785 0 0 1 0 1.57H5.198a.785.785 0 1 1 0-1.57zm0 3.384h13.06a.785.785 0 1 1 0 1.57H5.198a.785.785 0 1 1 0-1.57zm0 3.385h8.29a.785.785 0 1 1 0 1.57H5.2a.785.785 0 1 1 0-1.57zm0-10.154h4.513a.785.785 0 1 1 0 1.57H5.199a.785.785 0 0 1 0-1.57z"></path></g></g></svg>