<svg width="72px" heigth="72px" viewBox="0 0 72 72" id="icon_mainpage_services_support" xmlns="http://www.w3.org/2000/svg"><g fill="none" fill-rule="evenodd"><path fill="#F4F4F9" d="M72 36c0 19.882-16.118 36-36 36S0 55.882 0 36 16.118 0 36 0s36 16.118 36 36z"></path><circle cx="36" cy="36" r="20.455" fill="#9F9FCD" fill-rule="nonzero" opacity=".3"></circle><g fill-rule="nonzero"><path fill="#FFF" d="M24 34h2v13h-2a4 4 0 0 1-4-4v-5a4 4 0 0 1 4-4zm24 0h-2v13h2a4 4 0 0 0 4-4v-5a4 4 0 0 0-4-4z"></path><path fill="#25258E" d="M39.313 51.944A3.201 3.201 0 0 1 33 51.2a3.2 3.2 0 0 1 6.307-.769h3.443a2.058 2.058 0 0 0 2.056-2.056V33.68c0-.418.339-.757.757-.757h2.812a4.981 4.981 0 0 1 4.975 4.975v4.782a4.981 4.981 0 0 1-4.975 4.975h-2.056v.72a3.574 3.574 0 0 1-3.569 3.569h-3.437zm-12.875-19.02c.417 0 .756.338.756.756v13.218a.756.756 0 0 1-.756.757h-2.813a4.981 4.981 0 0 1-4.975-4.975v-4.782c0-1.792.962-3.42 2.49-4.307l.32-.185.004-.37a14.435 14.435 0 0 1 4.256-10.128A14.438 14.438 0 0 1 36 18.65c3.03 0 5.933.923 8.397 2.669a14.5 14.5 0 0 1 5.242 6.825.756.756 0 0 1-1.419.525c-1.883-5.09-6.792-8.507-12.22-8.507-6.824 0-12.493 5.293-12.99 12.064l-.05.697h3.477zm-2.813 13.218h2.056V34.436h-2.056a3.466 3.466 0 0 0-3.462 3.462v4.782a3.466 3.466 0 0 0 3.462 3.462zm28.213-3.462v-4.782a3.466 3.466 0 0 0-3.463-3.462h-2.056v11.706h2.056a3.466 3.466 0 0 0 3.463-3.462zM36.2 53a1.8 1.8 0 1 0 0-3.6 1.8 1.8 0 0 0 0 3.6z"></path></g></g></svg>